<svg viewBox="0 0 200 150" fill="none" xmlns="http://www.w3.org/2000/svg">
  <path d="M0 68.75V31.25H6.25V25H12.5V18.75H31.25V12.5H68.75V18.75H93.75V25H143.75V18.75H162.5V12.5H187.5V6.25H193.75V0H200V18.75H193.75V31.25H187.5H181.25V37.5V43.75H187.5V37.5H193.75V56.25H181.25V62.5H187.5V81.25H181.25V87.5H175V93.75H187.5V87.5H200V106.25H193.75V118.75V125H187.5V131.25H168.75V137.5H143.75V143.75H81.25V137.5H37.5V143.75H25V150H12.5V106.25H6.25V68.75H0Z" fill="#0b0c0e" />
  <path d="M0 68.75V31.25H6.25V25H12.5V18.75H31.25V12.5H68.75V18.75H93.75V25H143.75V18.75H162.5V12.5H187.5V6.25H193.75V0H200V18.75H193.75V31.25H187.5H181.25V37.5V43.75H187.5V37.5H193.75V56.25H181.25V62.5H187.5V81.25H181.25V87.5H175V93.75H187.5V87.5H200V106.25H193.75V118.75V125H187.5V131.25H168.75V137.5H143.75V143.75H81.25V137.5H37.5V143.75H25V150H12.5V106.25H6.25V68.75H0Z" stroke="#0b0c0e" />
  <path d="M181.25 37.5V31.25H187.5V37.5H181.25Z" fill="#0b0c0e" />
  <path d="M118.75 50H87.5V56.25H81.25V62.5H75V93.75H87.5V106.25H93.75V100H100V106.25H106.25V100H112.5V106.25H118.75V93.75H131.25V62.5H125V56.25H118.75V50Z" fill="#f1f2f4" />
  <path d="M131.25 50V62.5H143.75V56.25H156.25V43.75H150V37.5H137.5V50H131.25Z" fill="#f1f2f4" />
  <path d="M81.25 112.5V100H68.75V106.25H56.25V118.75H62.5V125H75V112.5H81.25Z" fill="#f1f2f4" />
  <path d="M125 112.5V100H137.5V106.25H150V118.75H143.75V125H131.25V112.5H125Z" fill="#f1f2f4" />
  <path d="M75 50V62.5H62.5V56.25H50V43.75H56.25V37.5H68.75V50H75Z" fill="#f1f2f4" />
  <path d="M81.25 81.25V68.75H93.75V81.25H81.25Z" fill="#0b0c0e" />
  <path d="M112.5 81.25V68.75H125V81.25H112.5Z" fill="#0b0c0e" />
  <path d="M100 93.75V87.5H106.25V93.75H100Z" fill="#0b0c0e" />
</svg>
